<mxfile>
    <diagram id="VIUhsGWNbfFCVJHX2bP4" name="第 1 页">
        <mxGraphModel dx="1627" dy="1300" grid="1" gridSize="10" guides="1" tooltips="1" connect="1" arrows="1" fold="1" page="1" pageScale="1" pageWidth="827" pageHeight="1169" background="none" math="0" shadow="0">
            <root>
                <mxCell id="0"/>
                <mxCell id="1" parent="0"/>
                <mxCell id="275" value="APP缺陷页面" style="html=1;align=left;verticalAlign=top;rounded=1;absoluteArcSize=1;arcSize=10;dashed=1;strokeColor=#000000;fontColor=#000000;fillColor=#CCFFFF;fontStyle=1;fontFamily=Helvetica;" parent="1" vertex="1">
                    <mxGeometry x="120" y="40" width="320" height="1040" as="geometry"/>
                </mxCell>
                <mxCell id="4" value="缺陷录入" style="html=1;align=center;verticalAlign=top;rounded=1;absoluteArcSize=1;arcSize=10;dashed=0;fontFamily=Helvetica;fontSize=12;fillColor=#FFFFFF;" parent="1" vertex="1">
                    <mxGeometry x="160" y="80" width="240" height="150" as="geometry"/>
                </mxCell>
                <mxCell id="6" value="2.缺陷定级" style="html=1;align=center;verticalAlign=top;rounded=1;absoluteArcSize=1;arcSize=10;dashed=0;labelBorderColor=none;strokeColor=#66B2FF;fontStyle=1;fontSize=16;fontFamily=Helvetica;" parent="1" vertex="1">
                    <mxGeometry x="520" y="80" width="240" height="240" as="geometry"/>
                </mxCell>
                <mxCell id="7" value="3.缺陷接收" style="html=1;align=center;verticalAlign=top;rounded=1;absoluteArcSize=1;arcSize=10;dashed=0;labelBorderColor=none;strokeColor=#66B2FF;fontStyle=1;fontSize=16;fontFamily=Helvetica;" parent="1" vertex="1">
                    <mxGeometry x="880" y="80" width="240" height="1290" as="geometry"/>
                </mxCell>
                <mxCell id="8" value="4.消缺处理" style="html=1;align=center;verticalAlign=top;rounded=1;absoluteArcSize=1;arcSize=10;dashed=0;labelBorderColor=none;strokeColor=#66B2FF;fontStyle=1;fontSize=16;fontFamily=Helvetica;" parent="1" vertex="1">
                    <mxGeometry x="1240" y="80" width="240" height="1260" as="geometry"/>
                </mxCell>
                <mxCell id="9" value="5.消缺验收" style="html=1;align=center;verticalAlign=top;rounded=1;absoluteArcSize=1;arcSize=10;dashed=0;labelBorderColor=none;strokeColor=#66B2FF;fontStyle=1;fontSize=16;fontFamily=Helvetica;" parent="1" vertex="1">
                    <mxGeometry x="1640" y="80" width="240" height="220" as="geometry"/>
                </mxCell>
                <mxCell id="11" value="缺陷查询" style="html=1;align=center;verticalAlign=top;rounded=1;absoluteArcSize=1;arcSize=10;dashed=0;fontFamily=Helvetica;fontSize=12;fillColor=#FFFFFF;" parent="1" vertex="1">
                    <mxGeometry x="160" y="280" width="240" height="230" as="geometry"/>
                </mxCell>
                <mxCell id="15" value="缺陷考核" style="html=1;align=center;verticalAlign=top;rounded=1;absoluteArcSize=1;arcSize=10;dashed=0;fontFamily=Helvetica;fontSize=12;fillColor=#FFFFFF;" parent="1" vertex="1">
                    <mxGeometry x="160" y="800" width="240" height="30" as="geometry"/>
                </mxCell>
                <mxCell id="45" value="运行人员" style="swimlane;fontStyle=1;align=center;verticalAlign=top;childLayout=stackLayout;horizontal=1;startSize=30;horizontalStack=0;resizeParent=1;resizeParentMax=0;resizeLast=0;collapsible=0;marginBottom=0;html=1;fontFamily=Helvetica;" parent="1" vertex="1">
                    <mxGeometry x="210" y="120" width="140" height="80" as="geometry"/>
                </mxCell>
                <mxCell id="47" value="" style="swimlane;fontStyle=1;align=center;verticalAlign=top;horizontal=1;startSize=0;collapsible=0;marginBottom=0;html=1;strokeColor=none;fillColor=none;fontFamily=Helvetica;" parent="45" vertex="1">
                    <mxGeometry y="30" width="140" height="50" as="geometry"/>
                </mxCell>
                <mxCell id="48" value="录入" style="html=1;align=center;verticalAlign=middle;rotatable=0;fontFamily=Helvetica;" parent="47" vertex="1">
                    <mxGeometry width="100" height="30" relative="1" as="geometry">
                        <mxPoint x="20" y="10" as="offset"/>
                    </mxGeometry>
                </mxCell>
                <mxCell id="52" value="机值长" style="swimlane;fontStyle=1;align=center;verticalAlign=top;childLayout=stackLayout;horizontal=1;startSize=30;horizontalStack=0;resizeParent=1;resizeParentMax=0;resizeLast=0;collapsible=0;marginBottom=0;html=1;fontFamily=Helvetica;" parent="1" vertex="1">
                    <mxGeometry x="570" y="160" width="140" height="140" as="geometry"/>
                </mxCell>
                <mxCell id="53" value="" style="swimlane;fontStyle=1;align=center;verticalAlign=top;horizontal=1;startSize=0;collapsible=0;marginBottom=0;html=1;strokeColor=none;fillColor=none;fontFamily=Helvetica;" parent="52" vertex="1">
                    <mxGeometry y="30" width="140" height="110" as="geometry"/>
                </mxCell>
                <mxCell id="54" value="确认定级&lt;br&gt;重新编辑&lt;br&gt;提交" style="html=1;align=center;verticalAlign=middle;rotatable=0;fontFamily=Helvetica;" parent="53" vertex="1">
                    <mxGeometry width="100" height="50" relative="1" as="geometry">
                        <mxPoint x="20" y="10" as="offset"/>
                    </mxGeometry>
                </mxCell>
                <mxCell id="58" value="作废并删除" style="html=1;align=center;verticalAlign=middle;rotatable=0;fontFamily=Helvetica;" parent="53" vertex="1">
                    <mxGeometry x="20" y="70" width="100" height="30" as="geometry"/>
                </mxCell>
                <mxCell id="62" value="&lt;span style=&quot;&quot;&gt;设备部.&lt;br&gt;主任、副主任、&lt;/span&gt;&lt;span style=&quot;&quot;&gt;专工、班长&lt;/span&gt;" style="swimlane;fontStyle=1;align=center;verticalAlign=middle;childLayout=stackLayout;horizontal=1;startSize=30;horizontalStack=0;resizeParent=1;resizeParentMax=0;resizeLast=0;collapsible=0;marginBottom=0;html=1;fontFamily=Helvetica;" parent="1" vertex="1">
                    <mxGeometry x="930" y="160" width="140" height="140" as="geometry"/>
                </mxCell>
                <mxCell id="63" value="" style="swimlane;fontStyle=1;align=center;verticalAlign=top;horizontal=1;startSize=0;collapsible=0;marginBottom=0;html=1;strokeColor=none;fillColor=none;fontFamily=Helvetica;" parent="62" vertex="1">
                    <mxGeometry y="30" width="140" height="110" as="geometry"/>
                </mxCell>
                <mxCell id="64" value="接收缺陷&lt;br&gt;审批通过&lt;br&gt;（是否上报）" style="html=1;align=center;verticalAlign=middle;rotatable=0;fontFamily=Helvetica;" parent="63" vertex="1">
                    <mxGeometry width="100" height="50" relative="1" as="geometry">
                        <mxPoint x="20" y="10" as="offset"/>
                    </mxGeometry>
                </mxCell>
                <mxCell id="65" value="转发其他专业" style="html=1;align=center;verticalAlign=middle;rotatable=0;fontFamily=Helvetica;" parent="63" vertex="1">
                    <mxGeometry x="20" y="70" width="100" height="30" as="geometry"/>
                </mxCell>
                <mxCell id="78" value="&lt;span style=&quot;&quot;&gt;责任部门/单位&lt;br&gt;缺陷维护管理员&lt;br&gt;&lt;/span&gt;" style="swimlane;fontStyle=1;align=center;verticalAlign=middle;childLayout=stackLayout;horizontal=1;startSize=30;horizontalStack=0;resizeParent=1;resizeParentMax=0;resizeLast=0;collapsible=0;marginBottom=0;html=1;fontFamily=Helvetica;" parent="1" vertex="1">
                    <mxGeometry x="1290" y="160" width="140" height="80" as="geometry"/>
                </mxCell>
                <mxCell id="79" value="" style="swimlane;fontStyle=1;align=center;verticalAlign=top;horizontal=1;startSize=0;collapsible=0;marginBottom=0;html=1;strokeColor=none;fillColor=none;fontFamily=Helvetica;" parent="78" vertex="1">
                    <mxGeometry y="30" width="140" height="50" as="geometry"/>
                </mxCell>
                <mxCell id="80" value="安排消缺负责人" style="html=1;align=center;verticalAlign=middle;rotatable=0;fontFamily=Helvetica;" parent="79" vertex="1">
                    <mxGeometry width="100" height="30" relative="1" as="geometry">
                        <mxPoint x="20" y="10" as="offset"/>
                    </mxGeometry>
                </mxCell>
                <mxCell id="86" value="&lt;span style=&quot;&quot;&gt;责任部门/单位&lt;/span&gt;" style="swimlane;fontStyle=1;align=center;verticalAlign=top;childLayout=stackLayout;horizontal=1;startSize=30;horizontalStack=0;resizeParent=1;resizeParentMax=0;resizeLast=0;collapsible=0;marginBottom=0;html=1;fontFamily=Helvetica;" parent="1" vertex="1">
                    <mxGeometry x="1690" y="160" width="140" height="80" as="geometry"/>
                </mxCell>
                <mxCell id="87" value="" style="swimlane;fontStyle=1;align=center;verticalAlign=top;horizontal=1;startSize=0;collapsible=0;marginBottom=0;html=1;strokeColor=none;fillColor=none;fontFamily=Helvetica;" parent="86" vertex="1">
                    <mxGeometry y="30" width="140" height="50" as="geometry"/>
                </mxCell>
                <mxCell id="88" value="消缺验收&lt;br&gt;提交验收情况" style="html=1;align=center;verticalAlign=middle;rotatable=0;fontFamily=Helvetica;" parent="87" vertex="1">
                    <mxGeometry width="100" height="30" relative="1" as="geometry">
                        <mxPoint x="20" y="10" as="offset"/>
                    </mxGeometry>
                </mxCell>
                <mxCell id="95" value="有权限人员" style="swimlane;fontStyle=1;align=center;verticalAlign=top;childLayout=stackLayout;horizontal=1;startSize=30;horizontalStack=0;resizeParent=1;resizeParentMax=0;resizeLast=0;collapsible=0;marginBottom=0;html=1;fontFamily=Helvetica;" parent="1" vertex="1">
                    <mxGeometry x="930" y="1230" width="140" height="120" as="geometry"/>
                </mxCell>
                <mxCell id="96" value="" style="swimlane;fontStyle=1;align=center;verticalAlign=top;horizontal=1;startSize=0;collapsible=0;marginBottom=0;html=1;strokeColor=none;fillColor=none;fontFamily=Helvetica;" parent="95" vertex="1">
                    <mxGeometry y="30" width="140" height="90" as="geometry"/>
                </mxCell>
                <mxCell id="97" value="同意删除" style="html=1;align=center;verticalAlign=middle;rotatable=0;fontFamily=Helvetica;" parent="96" vertex="1">
                    <mxGeometry width="100" height="30" relative="1" as="geometry">
                        <mxPoint x="20" y="10" as="offset"/>
                    </mxGeometry>
                </mxCell>
                <mxCell id="166" value="不同意删除" style="html=1;align=center;verticalAlign=middle;rotatable=0;fontFamily=Helvetica;" parent="96" vertex="1">
                    <mxGeometry x="20" y="50" width="100" height="30" as="geometry"/>
                </mxCell>
                <mxCell id="125" style="edgeStyle=orthogonalEdgeStyle;rounded=0;orthogonalLoop=1;jettySize=auto;html=1;exitX=1;exitY=0.5;exitDx=0;exitDy=0;fontFamily=Helvetica;" parent="1" source="99" target="48" edge="1">
                    <mxGeometry relative="1" as="geometry"/>
                </mxCell>
                <mxCell id="99" value="&#10;&#10;&#10;&#10;1.缺陷录入" style="ellipse;fillColor=#ffffff;strokeColor=#000000;fontSize=16;fontStyle=1;fontFamily=Helvetica;" parent="1" vertex="1">
                    <mxGeometry x="40" y="160" width="30" height="30" as="geometry"/>
                </mxCell>
                <mxCell id="110" value="&lt;br&gt;&lt;br&gt;&lt;br&gt;&lt;br&gt;验收合格" style="ellipse;html=1;shape=endState;fillColor=#000000;strokeColor=#000000;fontFamily=Helvetica;" parent="1" vertex="1">
                    <mxGeometry x="2013" y="200" width="30" height="30" as="geometry"/>
                </mxCell>
                <mxCell id="128" style="edgeStyle=orthogonalEdgeStyle;rounded=0;orthogonalLoop=1;jettySize=auto;html=1;exitX=1;exitY=0.5;exitDx=0;exitDy=0;entryX=0;entryY=0.5;entryDx=0;entryDy=0;fontFamily=Helvetica;" parent="1" source="54" target="130" edge="1">
                    <mxGeometry relative="1" as="geometry"/>
                </mxCell>
                <mxCell id="124" value="缺陷定级" style="html=1;align=center;verticalAlign=middle;rounded=1;absoluteArcSize=1;arcSize=10;dashed=0;labelBackgroundColor=none;shadow=0;fillColor=#1ba1e2;strokeColor=#006EAF;fontColor=#ffffff;fontFamily=Helvetica;" parent="1" vertex="1">
                    <mxGeometry x="570" y="120" width="140" height="40" as="geometry"/>
                </mxCell>
                <mxCell id="126" style="edgeStyle=orthogonalEdgeStyle;rounded=0;orthogonalLoop=1;jettySize=auto;html=1;exitX=1;exitY=0.5;exitDx=0;exitDy=0;entryX=0;entryY=0.5;entryDx=0;entryDy=0;fontFamily=Helvetica;" parent="1" source="48" target="124" edge="1">
                    <mxGeometry relative="1" as="geometry"/>
                </mxCell>
                <mxCell id="130" value="缺陷待接收" style="html=1;align=center;verticalAlign=middle;rounded=1;absoluteArcSize=1;arcSize=10;dashed=0;labelBackgroundColor=none;shadow=0;fillColor=#1ba1e2;strokeColor=#006EAF;fontColor=#ffffff;fontFamily=Helvetica;" parent="1" vertex="1">
                    <mxGeometry x="930" y="120" width="140" height="40" as="geometry"/>
                </mxCell>
                <mxCell id="137" style="edgeStyle=orthogonalEdgeStyle;rounded=0;orthogonalLoop=1;jettySize=auto;html=1;exitX=1;exitY=0.5;exitDx=0;exitDy=0;entryX=0;entryY=0.5;entryDx=0;entryDy=0;fontFamily=Helvetica;" parent="1" source="145" target="133" edge="1">
                    <mxGeometry relative="1" as="geometry">
                        <Array as="points">
                            <mxPoint x="1140" y="435"/>
                            <mxPoint x="1140" y="140"/>
                        </Array>
                    </mxGeometry>
                </mxCell>
                <mxCell id="131" value="缺陷已接收" style="html=1;align=center;verticalAlign=middle;rounded=1;absoluteArcSize=1;arcSize=10;dashed=0;labelBackgroundColor=none;shadow=0;fillColor=#1ba1e2;strokeColor=#006EAF;fontColor=#ffffff;fontFamily=Helvetica;" parent="1" vertex="1">
                    <mxGeometry x="930" y="340" width="140" height="40" as="geometry"/>
                </mxCell>
                <mxCell id="133" value="消缺安排中" style="html=1;align=center;verticalAlign=middle;rounded=1;absoluteArcSize=1;arcSize=10;dashed=0;labelBackgroundColor=none;shadow=0;fillColor=#1ba1e2;strokeColor=#006EAF;fontColor=#ffffff;fontFamily=Helvetica;" parent="1" vertex="1">
                    <mxGeometry x="1290" y="120" width="140" height="40" as="geometry"/>
                </mxCell>
                <mxCell id="139" value="" style="edgeStyle=orthogonalEdgeStyle;rounded=0;orthogonalLoop=1;jettySize=auto;html=1;exitX=1;exitY=0.5;exitDx=0;exitDy=0;entryX=0;entryY=0.5;entryDx=0;entryDy=0;fontFamily=Helvetica;" parent="1" source="149" target="136" edge="1">
                    <mxGeometry x="-0.1429" relative="1" as="geometry">
                        <Array as="points">
                            <mxPoint x="1530" y="375"/>
                            <mxPoint x="1530" y="140"/>
                        </Array>
                        <mxPoint as="offset"/>
                    </mxGeometry>
                </mxCell>
                <mxCell id="134" value="消缺中" style="html=1;align=center;verticalAlign=middle;rounded=1;absoluteArcSize=1;arcSize=10;dashed=0;labelBackgroundColor=none;shadow=0;fillColor=#1ba1e2;strokeColor=#006EAF;fontColor=#ffffff;fontFamily=Helvetica;" parent="1" vertex="1">
                    <mxGeometry x="1290" y="280" width="140" height="40" as="geometry"/>
                </mxCell>
                <mxCell id="157" value="消缺验收：合格" style="edgeStyle=orthogonalEdgeStyle;rounded=0;orthogonalLoop=1;jettySize=auto;html=1;exitX=1;exitY=0.5;exitDx=0;exitDy=0;entryX=0;entryY=0.5;entryDx=0;entryDy=0;fontFamily=Helvetica;" parent="1" source="88" target="110" edge="1">
                    <mxGeometry relative="1" as="geometry">
                        <mxPoint x="2040" y="215" as="targetPoint"/>
                    </mxGeometry>
                </mxCell>
                <mxCell id="136" value="申请验收" style="html=1;align=center;verticalAlign=middle;rounded=1;absoluteArcSize=1;arcSize=10;dashed=0;labelBackgroundColor=none;shadow=0;fillColor=#1ba1e2;strokeColor=#006EAF;fontColor=#ffffff;fontFamily=Helvetica;" parent="1" vertex="1">
                    <mxGeometry x="1690" y="120" width="140" height="40" as="geometry"/>
                </mxCell>
                <mxCell id="141" value="&lt;span style=&quot;&quot;&gt;设备部.&lt;br&gt;主任、副主任、&lt;/span&gt;&lt;span style=&quot;&quot;&gt;专工、班长&lt;/span&gt;" style="swimlane;fontStyle=1;align=center;verticalAlign=middle;childLayout=stackLayout;horizontal=1;startSize=30;horizontalStack=0;resizeParent=1;resizeParentMax=0;resizeLast=0;collapsible=0;marginBottom=0;html=1;fontFamily=Helvetica;" parent="1" vertex="1">
                    <mxGeometry x="930" y="380" width="140" height="160" as="geometry"/>
                </mxCell>
                <mxCell id="142" value="" style="swimlane;fontStyle=1;align=center;verticalAlign=top;horizontal=1;startSize=0;collapsible=0;marginBottom=0;html=1;strokeColor=none;fillColor=none;fontFamily=Helvetica;" parent="141" vertex="1">
                    <mxGeometry y="30" width="140" height="130" as="geometry"/>
                </mxCell>
                <mxCell id="143" value="修改定级" style="html=1;align=center;verticalAlign=middle;rotatable=0;fontFamily=Helvetica;" parent="142" vertex="1">
                    <mxGeometry width="100" height="30" relative="1" as="geometry">
                        <mxPoint x="20" y="50" as="offset"/>
                    </mxGeometry>
                </mxCell>
                <mxCell id="144" value="申请删除" style="html=1;align=center;verticalAlign=middle;rotatable=0;fontFamily=Helvetica;" parent="142" vertex="1">
                    <mxGeometry x="20" y="90" width="100" height="30" as="geometry"/>
                </mxCell>
                <mxCell id="145" value="指派维护管理员" style="html=1;align=center;verticalAlign=middle;rotatable=0;fontFamily=Helvetica;" parent="142" vertex="1">
                    <mxGeometry x="20" y="10" width="100" height="30" as="geometry"/>
                </mxCell>
                <mxCell id="146" value="&lt;span style=&quot;&quot;&gt;责任部门/单位&lt;/span&gt;&lt;br&gt;&lt;span style=&quot;&quot;&gt;维护专责（消缺负责人)&lt;/span&gt;" style="swimlane;fontStyle=1;align=center;verticalAlign=middle;childLayout=stackLayout;horizontal=1;startSize=30;horizontalStack=0;resizeParent=1;resizeParentMax=0;resizeLast=0;collapsible=0;marginBottom=0;html=1;fontFamily=Helvetica;" parent="1" vertex="1">
                    <mxGeometry x="1290" y="320" width="140" height="200" as="geometry"/>
                </mxCell>
                <mxCell id="147" value="" style="swimlane;fontStyle=1;align=center;verticalAlign=top;horizontal=1;startSize=0;collapsible=0;marginBottom=0;html=1;strokeColor=none;fillColor=none;fontFamily=Helvetica;" parent="146" vertex="1">
                    <mxGeometry y="30" width="140" height="170" as="geometry"/>
                </mxCell>
                <mxCell id="149" value="消缺结束&lt;br&gt;申请验收" style="html=1;align=center;verticalAlign=middle;rotatable=0;fontFamily=Helvetica;" parent="147" vertex="1">
                    <mxGeometry x="20" y="10" width="100" height="30" as="geometry"/>
                </mxCell>
                <mxCell id="151" value="申请延期" style="html=1;align=center;verticalAlign=middle;rotatable=0;fontFamily=Helvetica;" parent="147" vertex="1">
                    <mxGeometry x="20" y="90" width="100" height="30" as="geometry"/>
                </mxCell>
                <mxCell id="152" value="申请遗留" style="html=1;align=center;verticalAlign=middle;rotatable=0;fontFamily=Helvetica;" parent="147" vertex="1">
                    <mxGeometry x="20" y="130" width="100" height="30" as="geometry"/>
                </mxCell>
                <mxCell id="150" value="申请修改定级" style="html=1;align=center;verticalAlign=middle;rotatable=0;fontFamily=Helvetica;" parent="147" vertex="1">
                    <mxGeometry x="20" y="50" width="100" height="30" as="geometry"/>
                </mxCell>
                <mxCell id="153" value="" style="edgeStyle=orthogonalEdgeStyle;rounded=0;orthogonalLoop=1;jettySize=auto;html=1;exitX=0.5;exitY=1;exitDx=0;exitDy=0;entryX=0.5;entryY=0;entryDx=0;entryDy=0;fontFamily=Helvetica;" parent="1" source="80" target="134" edge="1">
                    <mxGeometry relative="1" as="geometry"/>
                </mxCell>
                <mxCell id="154" value="" style="edgeStyle=orthogonalEdgeStyle;rounded=0;orthogonalLoop=1;jettySize=auto;html=1;exitX=0;exitY=0.5;exitDx=0;exitDy=0;entryX=0.5;entryY=0;entryDx=0;entryDy=0;fontFamily=Helvetica;" parent="1" source="64" target="131" edge="1">
                    <mxGeometry relative="1" as="geometry">
                        <Array as="points">
                            <mxPoint x="910" y="225"/>
                            <mxPoint x="910" y="320"/>
                            <mxPoint x="1000" y="320"/>
                        </Array>
                    </mxGeometry>
                </mxCell>
                <mxCell id="158" value="消缺验收：不合格" style="edgeStyle=orthogonalEdgeStyle;rounded=0;orthogonalLoop=1;jettySize=auto;html=1;exitX=0;exitY=0.5;exitDx=0;exitDy=0;entryX=1;entryY=0.5;entryDx=0;entryDy=0;fontFamily=Helvetica;" parent="1" source="88" target="232" edge="1">
                    <mxGeometry x="-0.1042" relative="1" as="geometry">
                        <Array as="points">
                            <mxPoint x="1560" y="215"/>
                            <mxPoint x="1560" y="740"/>
                        </Array>
                        <mxPoint as="offset"/>
                    </mxGeometry>
                </mxCell>
                <mxCell id="160" value="&lt;br&gt;&lt;br&gt;&lt;br&gt;&lt;br&gt;运行缺陷作废" style="ellipse;html=1;shape=endState;fillColor=#000000;strokeColor=#000000;direction=south;fontFamily=Helvetica;" parent="1" vertex="1">
                    <mxGeometry x="625" y="360" width="30" height="30" as="geometry"/>
                </mxCell>
                <mxCell id="161" style="edgeStyle=orthogonalEdgeStyle;rounded=0;orthogonalLoop=1;jettySize=auto;html=1;exitX=0.5;exitY=1;exitDx=0;exitDy=0;entryX=0;entryY=0.5;entryDx=0;entryDy=0;fontFamily=Helvetica;" parent="1" source="58" target="160" edge="1">
                    <mxGeometry relative="1" as="geometry"/>
                </mxCell>
                <mxCell id="162" value="申请删除" style="html=1;align=center;verticalAlign=middle;rounded=1;absoluteArcSize=1;arcSize=10;dashed=0;labelBackgroundColor=none;shadow=0;fillColor=#1ba1e2;strokeColor=#006EAF;fontColor=#ffffff;fontFamily=Helvetica;" parent="1" vertex="1">
                    <mxGeometry x="930" y="1190" width="140" height="40" as="geometry"/>
                </mxCell>
                <mxCell id="164" value="&lt;br&gt;&lt;br&gt;&lt;br&gt;&lt;br&gt;检修缺陷作废" style="ellipse;html=1;shape=endState;fillColor=#000000;strokeColor=#000000;direction=south;fontFamily=Helvetica;" parent="1" vertex="1">
                    <mxGeometry x="1171" y="1270" width="30" height="30" as="geometry"/>
                </mxCell>
                <mxCell id="168" style="edgeStyle=orthogonalEdgeStyle;rounded=0;orthogonalLoop=1;jettySize=auto;html=1;exitX=0;exitY=0.5;exitDx=0;exitDy=0;entryX=0;entryY=0.5;entryDx=0;entryDy=0;fontFamily=Helvetica;" parent="1" source="166" target="131" edge="1">
                    <mxGeometry relative="1" as="geometry">
                        <Array as="points">
                            <mxPoint x="820" y="1325"/>
                            <mxPoint x="820" y="360"/>
                        </Array>
                    </mxGeometry>
                </mxCell>
                <mxCell id="167" style="edgeStyle=orthogonalEdgeStyle;rounded=0;orthogonalLoop=1;jettySize=auto;html=1;exitX=1;exitY=0.5;exitDx=0;exitDy=0;entryX=0.5;entryY=1;entryDx=0;entryDy=0;fontFamily=Helvetica;" parent="1" source="97" target="164" edge="1">
                    <mxGeometry relative="1" as="geometry"/>
                </mxCell>
                <mxCell id="169" style="edgeStyle=orthogonalEdgeStyle;rounded=0;orthogonalLoop=1;jettySize=auto;html=1;exitX=0;exitY=0.5;exitDx=0;exitDy=0;entryX=0;entryY=0.5;entryDx=0;entryDy=0;fontFamily=Helvetica;" parent="1" source="144" target="162" edge="1">
                    <mxGeometry relative="1" as="geometry">
                        <Array as="points">
                            <mxPoint x="850" y="515"/>
                            <mxPoint x="850" y="1210"/>
                        </Array>
                    </mxGeometry>
                </mxCell>
                <mxCell id="170" value="&lt;span style=&quot;&quot;&gt;设备部.&lt;br&gt;主任、副主任、&lt;/span&gt;&lt;span style=&quot;&quot;&gt;专工、班长&lt;/span&gt;" style="swimlane;fontStyle=1;align=center;verticalAlign=middle;childLayout=stackLayout;horizontal=1;startSize=30;horizontalStack=0;resizeParent=1;resizeParentMax=0;resizeLast=0;collapsible=0;marginBottom=0;html=1;fontFamily=Helvetica;" parent="1" vertex="1">
                    <mxGeometry x="930" y="1030" width="140" height="120" as="geometry"/>
                </mxCell>
                <mxCell id="171" value="" style="swimlane;fontStyle=1;align=center;verticalAlign=top;horizontal=1;startSize=0;collapsible=0;marginBottom=0;html=1;strokeColor=none;fillColor=none;fontFamily=Helvetica;" parent="170" vertex="1">
                    <mxGeometry y="30" width="140" height="90" as="geometry"/>
                </mxCell>
                <mxCell id="172" value="同意遗留" style="html=1;align=center;verticalAlign=middle;rotatable=0;fontFamily=Helvetica;" parent="171" vertex="1">
                    <mxGeometry width="100" height="30" relative="1" as="geometry">
                        <mxPoint x="20" y="10" as="offset"/>
                    </mxGeometry>
                </mxCell>
                <mxCell id="173" value="不同意遗留" style="html=1;align=center;verticalAlign=middle;rotatable=0;fontFamily=Helvetica;" parent="171" vertex="1">
                    <mxGeometry x="20" y="50" width="100" height="30" as="geometry"/>
                </mxCell>
                <mxCell id="174" value="申请遗留" style="html=1;align=center;verticalAlign=middle;rounded=1;absoluteArcSize=1;arcSize=10;dashed=0;labelBackgroundColor=none;shadow=0;fillColor=#1ba1e2;strokeColor=#006EAF;fontColor=#ffffff;fontFamily=Helvetica;" parent="1" vertex="1">
                    <mxGeometry x="930" y="990" width="140" height="40" as="geometry"/>
                </mxCell>
                <mxCell id="176" value="&lt;span style=&quot;&quot;&gt;设备部.&lt;br&gt;主任、副主任、&lt;/span&gt;&lt;span style=&quot;&quot;&gt;专工、班长&lt;/span&gt;" style="swimlane;fontStyle=1;align=center;verticalAlign=middle;childLayout=stackLayout;horizontal=1;startSize=30;horizontalStack=0;resizeParent=1;resizeParentMax=0;resizeLast=0;collapsible=0;marginBottom=0;html=1;fontFamily=Helvetica;" parent="1" vertex="1">
                    <mxGeometry x="930" y="830" width="140" height="120" as="geometry"/>
                </mxCell>
                <mxCell id="177" value="" style="swimlane;fontStyle=1;align=center;verticalAlign=top;horizontal=1;startSize=0;collapsible=0;marginBottom=0;html=1;strokeColor=none;fillColor=none;fontFamily=Helvetica;" parent="176" vertex="1">
                    <mxGeometry y="30" width="140" height="90" as="geometry"/>
                </mxCell>
                <mxCell id="178" value="同意延期" style="html=1;align=center;verticalAlign=middle;rotatable=0;fontFamily=Helvetica;" parent="177" vertex="1">
                    <mxGeometry width="100" height="30" relative="1" as="geometry">
                        <mxPoint x="20" y="10" as="offset"/>
                    </mxGeometry>
                </mxCell>
                <mxCell id="179" value="不同意延期" style="html=1;align=center;verticalAlign=middle;rotatable=0;fontFamily=Helvetica;" parent="177" vertex="1">
                    <mxGeometry x="20" y="50" width="100" height="30" as="geometry"/>
                </mxCell>
                <mxCell id="180" value="申请延期" style="html=1;align=center;verticalAlign=middle;rounded=1;absoluteArcSize=1;arcSize=10;dashed=0;labelBackgroundColor=none;shadow=0;fillColor=#1ba1e2;strokeColor=#006EAF;fontColor=#ffffff;fontFamily=Helvetica;" parent="1" vertex="1">
                    <mxGeometry x="930" y="790" width="140" height="40" as="geometry"/>
                </mxCell>
                <mxCell id="185" value="同意延期" style="html=1;align=center;verticalAlign=middle;rounded=1;absoluteArcSize=1;arcSize=10;dashed=0;labelBackgroundColor=none;shadow=0;fillColor=#1ba1e2;strokeColor=#006EAF;fontColor=#ffffff;fontFamily=Helvetica;" parent="1" vertex="1">
                    <mxGeometry x="1290" y="600" width="140" height="40" as="geometry"/>
                </mxCell>
                <mxCell id="194" value="&lt;span style=&quot;font-weight: 400&quot;&gt;物资管理部&lt;/span&gt;" style="swimlane;fontStyle=1;align=center;verticalAlign=middle;childLayout=stackLayout;horizontal=1;startSize=30;horizontalStack=0;resizeParent=1;resizeParentMax=0;resizeLast=0;collapsible=0;marginBottom=0;html=1;fontFamily=Helvetica;" parent="1" vertex="1">
                    <mxGeometry x="1290" y="1000" width="140" height="80" as="geometry"/>
                </mxCell>
                <mxCell id="195" value="" style="swimlane;fontStyle=1;align=center;verticalAlign=top;horizontal=1;startSize=0;collapsible=0;marginBottom=0;html=1;strokeColor=none;fillColor=none;fontFamily=Helvetica;" parent="194" vertex="1">
                    <mxGeometry y="30" width="140" height="50" as="geometry"/>
                </mxCell>
                <mxCell id="196" value="备品配件到货通知" style="html=1;align=center;verticalAlign=middle;rotatable=0;fontFamily=Helvetica;" parent="195" vertex="1">
                    <mxGeometry x="20" y="10" width="100" height="30" as="geometry"/>
                </mxCell>
                <mxCell id="201" value="&lt;span style=&quot;&quot;&gt;设备部.&lt;br&gt;主任、副主任、&lt;/span&gt;&lt;span style=&quot;&quot;&gt;专工、班长&lt;/span&gt;" style="swimlane;fontStyle=1;align=center;verticalAlign=middle;childLayout=stackLayout;horizontal=1;startSize=30;horizontalStack=0;resizeParent=1;resizeParentMax=0;resizeLast=0;collapsible=0;marginBottom=0;html=1;fontFamily=Helvetica;" parent="1" vertex="1">
                    <mxGeometry x="930" y="625" width="140" height="120" as="geometry"/>
                </mxCell>
                <mxCell id="202" value="" style="swimlane;fontStyle=1;align=center;verticalAlign=top;horizontal=1;startSize=0;collapsible=0;marginBottom=0;html=1;strokeColor=none;fillColor=none;fontFamily=Helvetica;" parent="201" vertex="1">
                    <mxGeometry y="30" width="140" height="90" as="geometry"/>
                </mxCell>
                <mxCell id="203" value="同意级别修改" style="html=1;align=center;verticalAlign=middle;rotatable=0;fontFamily=Helvetica;" parent="202" vertex="1">
                    <mxGeometry width="100" height="30" relative="1" as="geometry">
                        <mxPoint x="20" y="10" as="offset"/>
                    </mxGeometry>
                </mxCell>
                <mxCell id="204" value="不同意级别修改" style="html=1;align=center;verticalAlign=middle;rotatable=0;fontFamily=Helvetica;" parent="202" vertex="1">
                    <mxGeometry x="20" y="50" width="100" height="30" as="geometry"/>
                </mxCell>
                <mxCell id="205" value="申请级别修改" style="html=1;align=center;verticalAlign=middle;rounded=1;absoluteArcSize=1;arcSize=10;dashed=0;labelBackgroundColor=none;shadow=0;fillColor=#1ba1e2;strokeColor=#006EAF;fontColor=#ffffff;fontFamily=Helvetica;" parent="1" vertex="1">
                    <mxGeometry x="930" y="585" width="140" height="40" as="geometry"/>
                </mxCell>
                <mxCell id="207" style="edgeStyle=orthogonalEdgeStyle;rounded=0;orthogonalLoop=1;jettySize=auto;html=1;exitX=0;exitY=0.5;exitDx=0;exitDy=0;entryX=1;entryY=0.5;entryDx=0;entryDy=0;fontFamily=Helvetica;" parent="1" source="150" target="205" edge="1">
                    <mxGeometry relative="1" as="geometry">
                        <Array as="points">
                            <mxPoint x="1160" y="415"/>
                            <mxPoint x="1160" y="605"/>
                        </Array>
                    </mxGeometry>
                </mxCell>
                <mxCell id="208" style="edgeStyle=orthogonalEdgeStyle;rounded=0;orthogonalLoop=1;jettySize=auto;html=1;exitX=0;exitY=0.5;exitDx=0;exitDy=0;entryX=1;entryY=0.5;entryDx=0;entryDy=0;fontFamily=Helvetica;" parent="1" source="151" target="180" edge="1">
                    <mxGeometry relative="1" as="geometry">
                        <Array as="points">
                            <mxPoint x="1180" y="455"/>
                            <mxPoint x="1180" y="810"/>
                        </Array>
                    </mxGeometry>
                </mxCell>
                <mxCell id="209" style="edgeStyle=orthogonalEdgeStyle;rounded=0;orthogonalLoop=1;jettySize=auto;html=1;exitX=0;exitY=0.5;exitDx=0;exitDy=0;entryX=1;entryY=0.5;entryDx=0;entryDy=0;fontFamily=Helvetica;" parent="1" source="152" target="174" edge="1">
                    <mxGeometry relative="1" as="geometry">
                        <Array as="points">
                            <mxPoint x="1200" y="495"/>
                            <mxPoint x="1200" y="1010"/>
                        </Array>
                    </mxGeometry>
                </mxCell>
                <mxCell id="218" value="同意级别修改" style="html=1;align=center;verticalAlign=middle;rounded=1;absoluteArcSize=1;arcSize=10;dashed=0;labelBackgroundColor=none;shadow=0;fillColor=#1ba1e2;strokeColor=#006EAF;fontColor=#ffffff;fontFamily=Helvetica;" parent="1" vertex="1">
                    <mxGeometry x="1290" y="520" width="140" height="40" as="geometry"/>
                </mxCell>
                <mxCell id="229" value="不同意级别修改" style="html=1;align=center;verticalAlign=middle;rounded=1;absoluteArcSize=1;arcSize=10;dashed=0;labelBackgroundColor=none;shadow=0;fillColor=#1ba1e2;strokeColor=#006EAF;fontColor=#ffffff;fontFamily=Helvetica;" parent="1" vertex="1">
                    <mxGeometry x="1290" y="560" width="140" height="40" as="geometry"/>
                </mxCell>
                <mxCell id="230" value="不同意延期" style="html=1;align=center;verticalAlign=middle;rounded=1;absoluteArcSize=1;arcSize=10;dashed=0;labelBackgroundColor=none;shadow=0;fillColor=#1ba1e2;strokeColor=#006EAF;fontColor=#ffffff;fontFamily=Helvetica;" parent="1" vertex="1">
                    <mxGeometry x="1290" y="640" width="140" height="40" as="geometry"/>
                </mxCell>
                <mxCell id="231" value="不同意遗留" style="html=1;align=center;verticalAlign=middle;rounded=1;absoluteArcSize=1;arcSize=10;dashed=0;labelBackgroundColor=none;shadow=0;fillColor=#1ba1e2;strokeColor=#006EAF;fontColor=#ffffff;fontFamily=Helvetica;" parent="1" vertex="1">
                    <mxGeometry x="1290" y="680" width="140" height="40" as="geometry"/>
                </mxCell>
                <mxCell id="232" value="验收不合格" style="html=1;align=center;verticalAlign=middle;rounded=1;absoluteArcSize=1;arcSize=10;dashed=0;labelBackgroundColor=none;shadow=0;fillColor=#1ba1e2;strokeColor=#006EAF;fontColor=#ffffff;fontFamily=Helvetica;" parent="1" vertex="1">
                    <mxGeometry x="1290" y="720" width="140" height="40" as="geometry"/>
                </mxCell>
                <mxCell id="233" style="edgeStyle=orthogonalEdgeStyle;rounded=0;orthogonalLoop=1;jettySize=auto;html=1;exitX=1;exitY=0.5;exitDx=0;exitDy=0;entryX=0;entryY=0.5;entryDx=0;entryDy=0;fontFamily=Helvetica;" parent="1" source="203" target="218" edge="1">
                    <mxGeometry relative="1" as="geometry">
                        <Array as="points">
                            <mxPoint x="1210" y="680"/>
                            <mxPoint x="1210" y="540"/>
                        </Array>
                    </mxGeometry>
                </mxCell>
                <mxCell id="234" style="edgeStyle=orthogonalEdgeStyle;rounded=0;orthogonalLoop=1;jettySize=auto;html=1;exitX=1;exitY=0.5;exitDx=0;exitDy=0;entryX=0;entryY=0.5;entryDx=0;entryDy=0;fontFamily=Helvetica;" parent="1" source="204" target="229" edge="1">
                    <mxGeometry relative="1" as="geometry">
                        <Array as="points">
                            <mxPoint x="1220" y="720"/>
                            <mxPoint x="1220" y="580"/>
                        </Array>
                    </mxGeometry>
                </mxCell>
                <mxCell id="235" style="edgeStyle=orthogonalEdgeStyle;rounded=0;orthogonalLoop=1;jettySize=auto;html=1;exitX=1;exitY=0.5;exitDx=0;exitDy=0;entryX=0;entryY=0.5;entryDx=0;entryDy=0;fontFamily=Helvetica;" parent="1" source="178" target="185" edge="1">
                    <mxGeometry relative="1" as="geometry">
                        <Array as="points">
                            <mxPoint x="1230" y="885"/>
                            <mxPoint x="1230" y="620"/>
                        </Array>
                    </mxGeometry>
                </mxCell>
                <mxCell id="236" style="edgeStyle=orthogonalEdgeStyle;rounded=0;orthogonalLoop=1;jettySize=auto;html=1;exitX=1;exitY=0.5;exitDx=0;exitDy=0;entryX=0;entryY=0.5;entryDx=0;entryDy=0;fontFamily=Helvetica;" parent="1" source="179" target="230" edge="1">
                    <mxGeometry relative="1" as="geometry">
                        <Array as="points">
                            <mxPoint x="1250" y="925"/>
                            <mxPoint x="1250" y="660"/>
                        </Array>
                    </mxGeometry>
                </mxCell>
                <mxCell id="237" style="edgeStyle=orthogonalEdgeStyle;rounded=0;orthogonalLoop=1;jettySize=auto;html=1;exitX=1;exitY=0.5;exitDx=0;exitDy=0;entryX=0;entryY=0.5;entryDx=0;entryDy=0;fontFamily=Helvetica;" parent="1" source="173" target="231" edge="1">
                    <mxGeometry relative="1" as="geometry">
                        <Array as="points">
                            <mxPoint x="1260" y="1125"/>
                            <mxPoint x="1260" y="700"/>
                        </Array>
                    </mxGeometry>
                </mxCell>
                <mxCell id="238" value="同意遗留" style="html=1;align=center;verticalAlign=middle;rounded=1;absoluteArcSize=1;arcSize=10;dashed=0;labelBackgroundColor=none;shadow=0;fillColor=#1ba1e2;strokeColor=#006EAF;fontColor=#ffffff;fontFamily=Helvetica;" parent="1" vertex="1">
                    <mxGeometry x="1290" y="800" width="140" height="40" as="geometry"/>
                </mxCell>
                <mxCell id="239" value="&lt;span style=&quot;&quot;&gt;责任部门/单位&lt;/span&gt;&lt;br&gt;&lt;span style=&quot;&quot;&gt;维护专责（消缺负责人)&lt;/span&gt;" style="swimlane;fontStyle=1;align=center;verticalAlign=middle;childLayout=stackLayout;horizontal=1;startSize=30;horizontalStack=0;resizeParent=1;resizeParentMax=0;resizeLast=0;collapsible=0;marginBottom=0;html=1;fontFamily=Helvetica;" parent="1" vertex="1">
                    <mxGeometry x="1290" y="840" width="140" height="160" as="geometry"/>
                </mxCell>
                <mxCell id="240" value="" style="swimlane;fontStyle=1;align=center;verticalAlign=top;horizontal=1;startSize=0;collapsible=0;marginBottom=0;html=1;strokeColor=none;fillColor=none;fontFamily=Helvetica;" parent="239" vertex="1">
                    <mxGeometry y="30" width="140" height="130" as="geometry"/>
                </mxCell>
                <mxCell id="241" value="消缺结束&lt;br&gt;申请验收" style="html=1;align=center;verticalAlign=middle;rotatable=0;fontFamily=Helvetica;" parent="240" vertex="1">
                    <mxGeometry x="20" y="10" width="100" height="30" as="geometry"/>
                </mxCell>
                <mxCell id="242" value="申请延期" style="html=1;align=center;verticalAlign=middle;rotatable=0;fontColor=#999999;fontFamily=Helvetica;" parent="240" vertex="1">
                    <mxGeometry x="20" y="90" width="100" height="30" as="geometry"/>
                </mxCell>
                <mxCell id="244" value="申请修改定级" style="html=1;align=center;verticalAlign=middle;rotatable=0;fontColor=#999999;fontFamily=Helvetica;" parent="240" vertex="1">
                    <mxGeometry x="20" y="50" width="100" height="30" as="geometry"/>
                </mxCell>
                <mxCell id="245" value="备品配件到货" style="html=1;align=center;verticalAlign=middle;rounded=1;absoluteArcSize=1;arcSize=10;dashed=0;labelBackgroundColor=none;shadow=0;fillColor=#1ba1e2;strokeColor=#006EAF;fontColor=#ffffff;fontFamily=Helvetica;" parent="1" vertex="1">
                    <mxGeometry x="1290" y="1120" width="140" height="40" as="geometry"/>
                </mxCell>
                <mxCell id="247" style="edgeStyle=orthogonalEdgeStyle;rounded=0;orthogonalLoop=1;jettySize=auto;html=1;exitX=0.5;exitY=1;exitDx=0;exitDy=0;fontColor=#999999;fontFamily=Helvetica;" parent="1" source="196" target="245" edge="1">
                    <mxGeometry relative="1" as="geometry"/>
                </mxCell>
                <mxCell id="248" value="遗留到货申请验收" style="html=1;align=center;verticalAlign=middle;rounded=1;absoluteArcSize=1;arcSize=10;dashed=0;labelBackgroundColor=none;shadow=0;fillColor=#1ba1e2;strokeColor=#006EAF;fontColor=#ffffff;fontFamily=Helvetica;" parent="1" vertex="1">
                    <mxGeometry x="1690" y="240" width="140" height="40" as="geometry"/>
                </mxCell>
                <mxCell id="249" style="edgeStyle=orthogonalEdgeStyle;rounded=0;orthogonalLoop=1;jettySize=auto;html=1;exitX=1;exitY=0.5;exitDx=0;exitDy=0;entryX=0;entryY=0.5;entryDx=0;entryDy=0;fontColor=#999999;fontFamily=Helvetica;" parent="1" source="241" target="248" edge="1">
                    <mxGeometry relative="1" as="geometry">
                        <Array as="points">
                            <mxPoint x="1610" y="895"/>
                            <mxPoint x="1610" y="260"/>
                        </Array>
                    </mxGeometry>
                </mxCell>
                <mxCell id="250" value="&lt;span style=&quot;&quot;&gt;责任部门/单位&lt;/span&gt;&lt;br&gt;&lt;span style=&quot;&quot;&gt;维护专责（消缺负责人)&lt;/span&gt;" style="swimlane;fontStyle=1;align=center;verticalAlign=middle;childLayout=stackLayout;horizontal=1;startSize=30;horizontalStack=0;resizeParent=1;resizeParentMax=0;resizeLast=0;collapsible=0;marginBottom=0;html=1;fontFamily=Helvetica;" parent="1" vertex="1">
                    <mxGeometry x="1290" y="1160" width="140" height="160" as="geometry"/>
                </mxCell>
                <mxCell id="251" value="" style="swimlane;fontStyle=1;align=center;verticalAlign=top;horizontal=1;startSize=0;collapsible=0;marginBottom=0;html=1;strokeColor=none;fillColor=none;fontFamily=Helvetica;" parent="250" vertex="1">
                    <mxGeometry y="30" width="140" height="130" as="geometry"/>
                </mxCell>
                <mxCell id="253" value="申请延期" style="html=1;align=center;verticalAlign=middle;rotatable=0;fontColor=#999999;fontFamily=Helvetica;" parent="251" vertex="1">
                    <mxGeometry x="20" y="90" width="100" height="30" as="geometry"/>
                </mxCell>
                <mxCell id="254" value="申请修改定级" style="html=1;align=center;verticalAlign=middle;rotatable=0;fontColor=#999999;fontFamily=Helvetica;" parent="251" vertex="1">
                    <mxGeometry x="20" y="50" width="100" height="30" as="geometry"/>
                </mxCell>
                <mxCell id="274" value="消缺结束&lt;br&gt;申请验收" style="html=1;align=center;verticalAlign=middle;rotatable=0;fontFamily=Helvetica;" parent="251" vertex="1">
                    <mxGeometry x="20" y="10" width="100" height="30" as="geometry"/>
                </mxCell>
                <mxCell id="255" style="edgeStyle=orthogonalEdgeStyle;rounded=0;orthogonalLoop=1;jettySize=auto;html=1;entryX=0;entryY=0.5;entryDx=0;entryDy=0;fontColor=#999999;exitX=1;exitY=0.5;exitDx=0;exitDy=0;fontFamily=Helvetica;" parent="1" source="274" target="248" edge="1">
                    <mxGeometry relative="1" as="geometry">
                        <mxPoint x="1530" y="1240" as="sourcePoint"/>
                        <Array as="points">
                            <mxPoint x="1610" y="1215"/>
                            <mxPoint x="1610" y="260"/>
                        </Array>
                    </mxGeometry>
                </mxCell>
                <mxCell id="261" value="有权限用户" style="swimlane;fontStyle=1;align=center;verticalAlign=top;childLayout=stackLayout;horizontal=1;startSize=30;horizontalStack=0;resizeParent=1;resizeParentMax=0;resizeLast=0;collapsible=0;marginBottom=0;html=1;fontFamily=Helvetica;" parent="1" vertex="1">
                    <mxGeometry x="210" y="320" width="140" height="160" as="geometry"/>
                </mxCell>
                <mxCell id="262" value="" style="swimlane;fontStyle=1;align=center;verticalAlign=top;horizontal=1;startSize=0;collapsible=0;marginBottom=0;html=1;strokeColor=none;fillColor=none;fontFamily=Helvetica;" parent="261" vertex="1">
                    <mxGeometry y="30" width="140" height="130" as="geometry"/>
                </mxCell>
                <mxCell id="263" value="搜索" style="html=1;align=center;verticalAlign=middle;rotatable=0;fontFamily=Helvetica;" parent="262" vertex="1">
                    <mxGeometry width="100" height="30" relative="1" as="geometry">
                        <mxPoint x="20" y="10" as="offset"/>
                    </mxGeometry>
                </mxCell>
                <mxCell id="264" value="筛选" style="html=1;align=center;verticalAlign=middle;rotatable=0;fontFamily=Helvetica;" parent="262" vertex="1">
                    <mxGeometry x="20" y="50" width="100" height="30" as="geometry"/>
                </mxCell>
                <mxCell id="265" value="查看缺陷单" style="html=1;align=center;verticalAlign=middle;rotatable=0;fontFamily=Helvetica;" parent="262" vertex="1">
                    <mxGeometry x="20" y="90" width="100" height="30" as="geometry"/>
                </mxCell>
                <mxCell id="266" value="待我处理" style="html=1;align=center;verticalAlign=top;rounded=1;absoluteArcSize=1;arcSize=10;dashed=0;fontFamily=Helvetica;fontSize=12;fillColor=#FFFFFF;" parent="1" vertex="1">
                    <mxGeometry x="160" y="560" width="240" height="190" as="geometry"/>
                </mxCell>
                <mxCell id="268" value="有权限用户" style="swimlane;fontStyle=1;align=center;verticalAlign=top;childLayout=stackLayout;horizontal=1;startSize=30;horizontalStack=0;resizeParent=1;resizeParentMax=0;resizeLast=0;collapsible=0;marginBottom=0;html=1;fontFamily=Helvetica;" parent="1" vertex="1">
                    <mxGeometry x="210" y="600" width="140" height="130" as="geometry"/>
                </mxCell>
                <mxCell id="269" value="" style="swimlane;fontStyle=1;align=center;verticalAlign=top;horizontal=1;startSize=0;collapsible=0;marginBottom=0;html=1;strokeColor=none;fillColor=none;fontFamily=Helvetica;" parent="268" vertex="1">
                    <mxGeometry y="30" width="140" height="100" as="geometry"/>
                </mxCell>
                <mxCell id="271" value="筛选" style="html=1;align=center;verticalAlign=middle;rotatable=0;fontFamily=Helvetica;" parent="269" vertex="1">
                    <mxGeometry x="20" y="15" width="100" height="30" as="geometry"/>
                </mxCell>
                <mxCell id="272" value="查看缺陷单" style="html=1;align=center;verticalAlign=middle;rotatable=0;fontFamily=Helvetica;" parent="269" vertex="1">
                    <mxGeometry x="20" y="60" width="100" height="30" as="geometry"/>
                </mxCell>
                <mxCell id="273" style="edgeStyle=orthogonalEdgeStyle;rounded=0;orthogonalLoop=1;jettySize=auto;html=1;exitX=1;exitY=0.5;exitDx=0;exitDy=0;entryX=0;entryY=0.5;entryDx=0;entryDy=0;fontColor=#999999;fontFamily=Helvetica;" parent="1" source="172" target="238" edge="1">
                    <mxGeometry relative="1" as="geometry">
                        <Array as="points">
                            <mxPoint x="1270" y="1085"/>
                            <mxPoint x="1270" y="820"/>
                        </Array>
                    </mxGeometry>
                </mxCell>
                <mxCell id="276" value="APP首页" style="html=1;align=left;verticalAlign=top;rounded=1;absoluteArcSize=1;arcSize=10;dashed=1;strokeColor=#000000;fontColor=#000000;fillColor=#CCFFFF;fontStyle=1;fontFamily=Helvetica;" parent="1" vertex="1">
                    <mxGeometry x="120" y="1120" width="310" height="120" as="geometry"/>
                </mxCell>
                <mxCell id="291" style="edgeStyle=orthogonalEdgeStyle;rounded=0;orthogonalLoop=1;jettySize=auto;html=1;exitX=0.5;exitY=0;exitDx=0;exitDy=0;entryX=0.5;entryY=1;entryDx=0;entryDy=0;fontFamily=Helvetica;" edge="1" parent="1" source="286" target="275">
                    <mxGeometry relative="1" as="geometry"/>
                </mxCell>
                <mxCell id="286" value="未处理缺陷" style="html=1;align=center;verticalAlign=top;rounded=1;absoluteArcSize=1;arcSize=10;dashed=0;fontFamily=Helvetica;fontSize=12;fillColor=#FFFFFF;" vertex="1" parent="1">
                    <mxGeometry x="160" y="1170" width="240" height="30" as="geometry"/>
                </mxCell>
                <mxCell id="292" value="紧急缺陷" style="html=1;align=center;verticalAlign=top;rounded=1;absoluteArcSize=1;arcSize=10;dashed=0;fontFamily=Helvetica;fontSize=12;fillColor=#FFFFFF;" vertex="1" parent="1">
                    <mxGeometry x="160" y="850" width="240" height="30" as="geometry"/>
                </mxCell>
                <mxCell id="293" value="一类缺陷" style="html=1;align=center;verticalAlign=top;rounded=1;absoluteArcSize=1;arcSize=10;dashed=0;fontFamily=Helvetica;fontSize=12;fillColor=#FFFFFF;" vertex="1" parent="1">
                    <mxGeometry x="160" y="880" width="240" height="30" as="geometry"/>
                </mxCell>
                <mxCell id="294" value="二类缺陷" style="html=1;align=center;verticalAlign=top;rounded=1;absoluteArcSize=1;arcSize=10;dashed=0;fontFamily=Helvetica;fontSize=12;fillColor=#FFFFFF;" vertex="1" parent="1">
                    <mxGeometry x="160" y="910" width="240" height="30" as="geometry"/>
                </mxCell>
                <mxCell id="295" value="三类缺陷" style="html=1;align=center;verticalAlign=top;rounded=1;absoluteArcSize=1;arcSize=10;dashed=0;fontFamily=Helvetica;fontSize=12;fillColor=#FFFFFF;" vertex="1" parent="1">
                    <mxGeometry x="160" y="940" width="240" height="30" as="geometry"/>
                </mxCell>
                <mxCell id="296" value="四类缺陷" style="html=1;align=center;verticalAlign=top;rounded=1;absoluteArcSize=1;arcSize=10;dashed=0;fontFamily=Helvetica;fontSize=12;fillColor=#FFFFFF;" vertex="1" parent="1">
                    <mxGeometry x="160" y="970" width="240" height="30" as="geometry"/>
                </mxCell>
                <mxCell id="297" value="遗留缺陷" style="html=1;align=center;verticalAlign=top;rounded=1;absoluteArcSize=1;arcSize=10;dashed=0;fontFamily=Helvetica;fontSize=12;fillColor=#FFFFFF;" vertex="1" parent="1">
                    <mxGeometry x="160" y="1000" width="240" height="30" as="geometry"/>
                </mxCell>
                <mxCell id="298" value="PC" style="html=1;align=left;verticalAlign=top;rounded=1;absoluteArcSize=1;arcSize=10;dashed=1;strokeColor=#000000;fontColor=#000000;fillColor=#E6FFCC;fontStyle=1;fontFamily=Helvetica;" vertex="1" parent="1">
                    <mxGeometry x="2120" y="40" width="310" height="1230" as="geometry"/>
                </mxCell>
                <mxCell id="299" value="缺陷录入" style="html=1;align=center;verticalAlign=top;rounded=1;absoluteArcSize=1;arcSize=10;dashed=0;fontFamily=Helvetica;fontSize=12;fillColor=#FFFFFF;" vertex="1" parent="1">
                    <mxGeometry x="2160" y="90" width="240" height="30" as="geometry"/>
                </mxCell>
                <mxCell id="300" value="缺陷查询" style="html=1;align=center;verticalAlign=top;rounded=1;absoluteArcSize=1;arcSize=10;dashed=0;fontFamily=Helvetica;fontSize=12;fillColor=#FFFFFF;" vertex="1" parent="1">
                    <mxGeometry x="2160" y="140" width="240" height="290" as="geometry"/>
                </mxCell>
                <mxCell id="305" value="有权限人员" style="swimlane;fontStyle=1;align=center;verticalAlign=top;childLayout=stackLayout;horizontal=1;startSize=30;horizontalStack=0;resizeParent=1;resizeParentMax=0;resizeLast=0;collapsible=0;marginBottom=0;html=1;fontFamily=Helvetica;" vertex="1" parent="1">
                    <mxGeometry x="2210" y="170" width="140" height="240" as="geometry"/>
                </mxCell>
                <mxCell id="306" value="" style="swimlane;fontStyle=1;align=center;verticalAlign=top;horizontal=1;startSize=0;collapsible=0;marginBottom=0;html=1;strokeColor=none;fillColor=none;fontFamily=Helvetica;" vertex="1" parent="305">
                    <mxGeometry y="30" width="140" height="210" as="geometry"/>
                </mxCell>
                <mxCell id="307" value="搜索/重置" style="html=1;align=center;verticalAlign=middle;rotatable=0;fontFamily=Helvetica;" vertex="1" parent="306">
                    <mxGeometry width="100" height="30" relative="1" as="geometry">
                        <mxPoint x="20" y="10" as="offset"/>
                    </mxGeometry>
                </mxCell>
                <mxCell id="308" value="导出excel" style="html=1;align=center;verticalAlign=middle;rotatable=0;fontFamily=Helvetica;" vertex="1" parent="306">
                    <mxGeometry x="20" y="50" width="100" height="30" as="geometry"/>
                </mxCell>
                <mxCell id="309" value="查看历史消缺记录" style="html=1;align=center;verticalAlign=middle;rotatable=0;fontFamily=Helvetica;" vertex="1" parent="306">
                    <mxGeometry x="20" y="90" width="100" height="30" as="geometry"/>
                </mxCell>
                <mxCell id="310" value="查看缺陷级别修改过程" style="html=1;align=center;verticalAlign=middle;rotatable=0;fontFamily=Helvetica;" vertex="1" parent="306">
                    <mxGeometry x="20" y="170" width="100" height="30" as="geometry"/>
                </mxCell>
                <mxCell id="311" value="查看遗留信息" style="html=1;align=center;verticalAlign=middle;rotatable=0;fontFamily=Helvetica;" vertex="1" parent="306">
                    <mxGeometry x="20" y="130" width="100" height="30" as="geometry"/>
                </mxCell>
                <mxCell id="312" value="缺陷统计" style="html=1;align=center;verticalAlign=top;rounded=1;absoluteArcSize=1;arcSize=10;dashed=0;fontFamily=Helvetica;fontSize=12;fillColor=#FFFFFF;" vertex="1" parent="1">
                    <mxGeometry x="2160" y="452.5" width="240" height="175" as="geometry"/>
                </mxCell>
                <mxCell id="313" value="有权限人员" style="swimlane;fontStyle=1;align=center;verticalAlign=top;childLayout=stackLayout;horizontal=1;startSize=30;horizontalStack=0;resizeParent=1;resizeParentMax=0;resizeLast=0;collapsible=0;marginBottom=0;html=1;fontFamily=Helvetica;" vertex="1" parent="1">
                    <mxGeometry x="2210" y="487.5" width="140" height="120" as="geometry"/>
                </mxCell>
                <mxCell id="314" value="" style="swimlane;fontStyle=1;align=center;verticalAlign=top;horizontal=1;startSize=0;collapsible=0;marginBottom=0;html=1;strokeColor=none;fillColor=none;fontFamily=Helvetica;" vertex="1" parent="313">
                    <mxGeometry y="30" width="140" height="90" as="geometry"/>
                </mxCell>
                <mxCell id="315" value="搜索/重置" style="html=1;align=center;verticalAlign=middle;rotatable=0;fontFamily=Helvetica;" vertex="1" parent="314">
                    <mxGeometry width="100" height="30" relative="1" as="geometry">
                        <mxPoint x="20" y="10" as="offset"/>
                    </mxGeometry>
                </mxCell>
                <mxCell id="316" value="导出excel" style="html=1;align=center;verticalAlign=middle;rotatable=0;fontFamily=Helvetica;" vertex="1" parent="314">
                    <mxGeometry x="20" y="50" width="100" height="30" as="geometry"/>
                </mxCell>
                <mxCell id="320" value="部门统计" style="html=1;align=center;verticalAlign=top;rounded=1;absoluteArcSize=1;arcSize=10;dashed=0;fontFamily=Helvetica;fontSize=12;fillColor=#FFFFFF;" vertex="1" parent="1">
                    <mxGeometry x="2160" y="650" width="240" height="175" as="geometry"/>
                </mxCell>
                <mxCell id="321" value="有权限人员" style="swimlane;fontStyle=1;align=center;verticalAlign=top;childLayout=stackLayout;horizontal=1;startSize=30;horizontalStack=0;resizeParent=1;resizeParentMax=0;resizeLast=0;collapsible=0;marginBottom=0;html=1;fontFamily=Helvetica;" vertex="1" parent="1">
                    <mxGeometry x="2210" y="685" width="140" height="120" as="geometry"/>
                </mxCell>
                <mxCell id="322" value="" style="swimlane;fontStyle=1;align=center;verticalAlign=top;horizontal=1;startSize=0;collapsible=0;marginBottom=0;html=1;strokeColor=none;fillColor=none;fontFamily=Helvetica;" vertex="1" parent="321">
                    <mxGeometry y="30" width="140" height="90" as="geometry"/>
                </mxCell>
                <mxCell id="323" value="搜索/重置" style="html=1;align=center;verticalAlign=middle;rotatable=0;fontFamily=Helvetica;" vertex="1" parent="322">
                    <mxGeometry width="100" height="30" relative="1" as="geometry">
                        <mxPoint x="20" y="10" as="offset"/>
                    </mxGeometry>
                </mxCell>
                <mxCell id="324" value="导出excel" style="html=1;align=center;verticalAlign=middle;rotatable=0;fontFamily=Helvetica;" vertex="1" parent="322">
                    <mxGeometry x="20" y="50" width="100" height="30" as="geometry"/>
                </mxCell>
                <mxCell id="325" value="缺陷统计" style="html=1;align=center;verticalAlign=top;rounded=1;absoluteArcSize=1;arcSize=10;dashed=0;fontFamily=Helvetica;fontSize=12;fillColor=#FFFFFF;" vertex="1" parent="1">
                    <mxGeometry x="2160" y="850" width="240" height="175" as="geometry"/>
                </mxCell>
                <mxCell id="326" value="有权限人员" style="swimlane;fontStyle=1;align=center;verticalAlign=top;childLayout=stackLayout;horizontal=1;startSize=30;horizontalStack=0;resizeParent=1;resizeParentMax=0;resizeLast=0;collapsible=0;marginBottom=0;html=1;fontFamily=Helvetica;" vertex="1" parent="1">
                    <mxGeometry x="2210" y="885" width="140" height="120" as="geometry"/>
                </mxCell>
                <mxCell id="327" value="" style="swimlane;fontStyle=1;align=center;verticalAlign=top;horizontal=1;startSize=0;collapsible=0;marginBottom=0;html=1;strokeColor=none;fillColor=none;fontFamily=Helvetica;" vertex="1" parent="326">
                    <mxGeometry y="30" width="140" height="90" as="geometry"/>
                </mxCell>
                <mxCell id="328" value="搜索/重置" style="html=1;align=center;verticalAlign=middle;rotatable=0;fontFamily=Helvetica;" vertex="1" parent="327">
                    <mxGeometry width="100" height="30" relative="1" as="geometry">
                        <mxPoint x="20" y="10" as="offset"/>
                    </mxGeometry>
                </mxCell>
                <mxCell id="329" value="导出excel" style="html=1;align=center;verticalAlign=middle;rotatable=0;fontFamily=Helvetica;" vertex="1" parent="327">
                    <mxGeometry x="20" y="50" width="100" height="30" as="geometry"/>
                </mxCell>
                <mxCell id="331" value="安监考核" style="html=1;align=center;verticalAlign=top;rounded=1;absoluteArcSize=1;arcSize=10;dashed=0;fontFamily=Helvetica;fontSize=12;fillColor=#FFFFFF;" vertex="1" parent="1">
                    <mxGeometry x="2160" y="1058" width="240" height="175" as="geometry"/>
                </mxCell>
                <mxCell id="332" value="有权限人员" style="swimlane;fontStyle=1;align=center;verticalAlign=top;childLayout=stackLayout;horizontal=1;startSize=30;horizontalStack=0;resizeParent=1;resizeParentMax=0;resizeLast=0;collapsible=0;marginBottom=0;html=1;fontFamily=Helvetica;" vertex="1" parent="1">
                    <mxGeometry x="2210" y="1093" width="140" height="120" as="geometry"/>
                </mxCell>
                <mxCell id="333" value="" style="swimlane;fontStyle=1;align=center;verticalAlign=top;horizontal=1;startSize=0;collapsible=0;marginBottom=0;html=1;strokeColor=none;fillColor=none;fontFamily=Helvetica;" vertex="1" parent="332">
                    <mxGeometry y="30" width="140" height="90" as="geometry"/>
                </mxCell>
                <mxCell id="334" value="搜索/重置" style="html=1;align=center;verticalAlign=middle;rotatable=0;fontFamily=Helvetica;" vertex="1" parent="333">
                    <mxGeometry width="100" height="30" relative="1" as="geometry">
                        <mxPoint x="20" y="10" as="offset"/>
                    </mxGeometry>
                </mxCell>
                <mxCell id="335" value="导出excel" style="html=1;align=center;verticalAlign=middle;rotatable=0;fontFamily=Helvetica;" vertex="1" parent="333">
                    <mxGeometry x="20" y="50" width="100" height="30" as="geometry"/>
                </mxCell>
            </root>
        </mxGraphModel>
    </diagram>
</mxfile>